<svg width="40" height="40" viewBox="0 0 40 40" fill="none" xmlns="http://www.w3.org/2000/svg">
<path d="M37.475 15.5036C36.8018 14.8 36.1054 14.075 35.8429 13.4375C35.6 12.8536 35.5857 11.8857 35.5714 10.9482C35.5446 9.20536 35.5161 7.23036 34.1429 5.85714C32.7696 4.48393 30.7946 4.45536 29.0518 4.42857C28.1143 4.41429 27.1464 4.4 26.5625 4.15714C25.9268 3.89464 25.2 3.19821 24.4964 2.525C23.2643 1.34107 21.8643 0 20 0C18.1357 0 16.7375 1.34107 15.5036 2.525C14.8 3.19821 14.075 3.89464 13.4375 4.15714C12.8571 4.4 11.8857 4.41429 10.9482 4.42857C9.20536 4.45536 7.23036 4.48393 5.85714 5.85714C4.48393 7.23036 4.46429 9.20536 4.42857 10.9482C4.41429 11.8857 4.4 12.8536 4.15714 13.4375C3.89464 14.0732 3.19821 14.8 2.525 15.5036C1.34107 16.7357 0 18.1357 0 20C0 21.8643 1.34107 23.2625 2.525 24.4964C3.19821 25.2 3.89464 25.925 4.15714 26.5625C4.4 27.1464 4.41429 28.1143 4.42857 29.0518C4.45536 30.7946 4.48393 32.7696 5.85714 34.1429C7.23036 35.5161 9.20536 35.5446 10.9482 35.5714C11.8857 35.5857 12.8536 35.6 13.4375 35.8429C14.0732 36.1054 14.8 36.8018 15.5036 37.475C16.7357 38.6589 18.1357 40 20 40C21.8643 40 23.2625 38.6589 24.4964 37.475C25.2 36.8018 25.925 36.1054 26.5625 35.8429C27.1464 35.6 28.1143 35.5857 29.0518 35.5714C30.7946 35.5446 32.7696 35.5161 34.1429 34.1429C35.5161 32.7696 35.5446 30.7946 35.5714 29.0518C35.5857 28.1143 35.6 27.1464 35.8429 26.5625C36.1054 25.9268 36.8018 25.2 37.475 24.4964C38.6589 23.2643 40 21.8643 40 20C40 18.1357 38.6589 16.7375 37.475 15.5036ZM35.4125 22.5196C34.5571 23.4125 33.6714 24.3357 33.2018 25.4696C32.7518 26.5589 32.7321 27.8036 32.7143 29.0089C32.6964 30.2589 32.6768 31.5679 32.1214 32.1214C31.5661 32.675 30.2661 32.6964 29.0089 32.7143C27.8036 32.7321 26.5589 32.7518 25.4696 33.2018C24.3357 33.6714 23.4125 34.5571 22.5196 35.4125C21.6268 36.2679 20.7143 37.1429 20 37.1429C19.2857 37.1429 18.3661 36.2643 17.4804 35.4125C16.5946 34.5607 15.6643 33.6714 14.5304 33.2018C13.4411 32.7518 12.1964 32.7321 10.9911 32.7143C9.74107 32.6964 8.43214 32.6768 7.87857 32.1214C7.325 31.5661 7.30357 30.2661 7.28571 29.0089C7.26786 27.8036 7.24821 26.5589 6.79821 25.4696C6.32857 24.3357 5.44286 23.4125 4.5875 22.5196C3.73214 21.6268 2.85714 20.7143 2.85714 20C2.85714 19.2857 3.73571 18.3661 4.5875 17.4804C5.43929 16.5946 6.32857 15.6643 6.79821 14.5304C7.24821 13.4411 7.26786 12.1964 7.28571 10.9911C7.30357 9.74107 7.32321 8.43214 7.87857 7.87857C8.43393 7.325 9.73393 7.30357 10.9911 7.28571C12.1964 7.26786 13.4411 7.24821 14.5304 6.79821C15.6643 6.32857 16.5875 5.44286 17.4804 4.5875C18.3732 3.73214 19.2857 2.85714 20 2.85714C20.7143 2.85714 21.6339 3.73571 22.5196 4.5875C23.4054 5.43929 24.3357 6.32857 25.4696 6.79821C26.5589 7.24821 27.8036 7.26786 29.0089 7.28571C30.2589 7.30357 31.5679 7.32321 32.1214 7.87857C32.675 8.43393 32.6964 9.73393 32.7143 10.9911C32.7321 12.1964 32.7518 13.4411 33.2018 14.5304C33.6714 15.6643 34.5571 16.5875 35.4125 17.4804C36.2679 18.3732 37.1429 19.2857 37.1429 20C37.1429 20.7143 36.2643 21.6339 35.4125 22.5196ZM28.1536 14.7036C28.2864 14.8362 28.3918 14.9938 28.4637 15.1672C28.5356 15.3407 28.5726 15.5265 28.5726 15.7143C28.5726 15.902 28.5356 16.0879 28.4637 16.2613C28.3918 16.4348 28.2864 16.5923 28.1536 16.725L18.1536 26.725C18.0209 26.8578 17.8633 26.9632 17.6899 27.0351C17.5165 27.107 17.3306 27.144 17.1429 27.144C16.9551 27.144 16.7692 27.107 16.5958 27.0351C16.4224 26.9632 16.2648 26.8578 16.1321 26.725L11.8464 22.4393C11.5784 22.1712 11.4278 21.8077 11.4278 21.4286C11.4278 21.0495 11.5784 20.6859 11.8464 20.4179C12.1145 20.1498 12.4781 19.9992 12.8571 19.9992C13.2362 19.9992 13.5998 20.1498 13.8679 20.4179L17.1429 23.6946L26.1321 14.7036C26.2648 14.5707 26.4224 14.4654 26.5958 14.3935C26.7692 14.3216 26.9551 14.2846 27.1429 14.2846C27.3306 14.2846 27.5165 14.3216 27.6899 14.3935C27.8633 14.4654 28.0209 14.5707 28.1536 14.7036Z" fill="#0395FF"/>
</svg>
