<?xml version="1.0" encoding="UTF-8"?>
<svg xmlns="http://www.w3.org/2000/svg" version="1.1" viewBox="0 0 1209.5 324.5">
  <!-- Generator: Adobe Illustrator 29.0.1, SVG Export Plug-In . SVG Version: 2.1.0 Build 192)  -->
  <defs>
    <style>
      .st0 {
        fill: #fff;
      }
    </style>
  </defs>
  <g id="iconic">
    <g>
      <path class="st0" d="M410.3,190.4c-2-2.1-3-4.8-3-8.2V12.1c0-3.4,1-6.2,3-8.2,2-2.1,4.7-3.1,8.1-3.1s6.1,1,8.1,3.1c2,2.1,3,4.8,3,8.2v170.1c0,3.4-1,6.2-3,8.2-2,2.1-4.7,3.1-8.1,3.1s-6.1-1-8.1-3.1Z"/>
      <path class="st0" d="M496.8,182.6c-13.1-7.8-23.2-19-30.3-33.7-7.1-14.6-10.6-31.9-10.6-51.9s3.5-37,10.6-51.6c7.1-14.6,17.2-25.9,30.3-33.7,13.1-7.8,28.7-11.7,46.6-11.7s23.4,1.9,34.1,5.8c10.7,3.9,20,9.4,27.9,16.6,2.9,2.7,4.3,5.8,4.3,9.4s-.7,4.7-2.2,6.6c-1.4,1.9-3.1,2.8-5.1,2.8s-4.8-1-7.8-3c-9.2-7.2-17.5-12.2-24.9-15.1-7.5-2.9-16-4.3-25.7-4.3-20.8,0-36.9,6.8-48.1,20.4-11.2,13.6-16.8,32.8-16.8,57.8s5.6,44.5,16.8,58.1c11.2,13.6,27.3,20.4,48.1,20.4s18.1-1.4,25.6-4.3c7.5-2.9,15.9-7.9,25.1-15.1,3.1-2,5.7-3,7.8-3s3.7.9,5.1,2.7c1.4,1.8,2.2,4,2.2,6.7s-1.4,6.7-4.3,9.4c-7.9,7.2-17.2,12.7-27.9,16.6-10.7,3.9-22.1,5.8-34.1,5.8-18,0-33.5-3.9-46.6-11.7Z"/>
      <path class="st0" d="M662.4,182.5c-13-7.9-23-19.1-30.1-33.7s-10.5-31.7-10.5-51.5,3.5-37.2,10.4-51.9c6.9-14.6,16.9-25.9,29.9-33.7,13-7.8,28.4-11.7,46.2-11.7s33.2,3.9,46.2,11.7c13,7.8,23,19,29.9,33.7,6.9,14.6,10.4,31.9,10.4,51.6s-3.5,37-10.5,51.6c-7,14.6-17,25.9-30.1,33.8-13,7.9-28.3,11.9-46,11.9s-32.9-4-46-11.9ZM755.4,155.1c11.2-13.6,16.8-32.9,16.8-58.1s-5.6-44.5-16.7-58c-11.1-13.5-26.9-20.2-47.2-20.2s-35.8,6.8-47,20.4c-11.2,13.6-16.8,32.8-16.8,57.8s5.6,44.3,16.8,58c11.2,13.7,26.9,20.5,47,20.5s35.8-6.8,47-20.4Z"/>
      <path class="st0" d="M970.9,3.9c1.8,2.1,2.7,4.8,2.7,8.2v170.1c0,3.4-.9,6.2-2.8,8.2-1.9,2.1-4.5,3.1-8,3.1s-6.4-1.5-8.9-4.6l-111.9-149.6v142.9c0,3.4-.9,6.2-2.8,8.2s-4.4,3.1-7.7,3.1-5.8-1-7.5-3.1c-1.8-2.1-2.7-4.8-2.7-8.2V12.1c0-3.4.9-6.2,2.8-8.2,1.9-2.1,4.5-3.1,8-3.1s6.6,1.5,9.2,4.6l111.6,149.6V12.1c0-3.4.9-6.2,2.8-8.2,1.9-2.1,4.4-3.1,7.7-3.1s5.7,1,7.5,3.1Z"/>
      <path class="st0" d="M1010,190.4c-2-2.1-3-4.8-3-8.2V12.1c0-3.4,1-6.2,3-8.2,2-2.1,4.7-3.1,8.1-3.1s6.1,1,8.1,3.1c2,2.1,3,4.8,3,8.2v170.1c0,3.4-1,6.2-3,8.2-2,2.1-4.7,3.1-8.1,3.1s-6.1-1-8.1-3.1Z"/>
      <path class="st0" d="M1096.5,182.6c-13.1-7.8-23.2-19-30.3-33.7-7.1-14.6-10.6-31.9-10.6-51.9s3.5-37,10.6-51.6c7.1-14.6,17.2-25.9,30.3-33.7,13.1-7.8,28.7-11.7,46.6-11.7s23.4,1.9,34.1,5.8c10.7,3.9,20,9.4,27.9,16.6,2.9,2.7,4.3,5.8,4.3,9.4s-.7,4.7-2.2,6.6c-1.4,1.9-3.1,2.8-5.1,2.8s-4.8-1-7.8-3c-9.2-7.2-17.5-12.2-24.9-15.1-7.5-2.9-16-4.3-25.7-4.3-20.8,0-36.9,6.8-48.1,20.4-11.2,13.6-16.8,32.8-16.8,57.8s5.6,44.5,16.8,58.1c11.2,13.6,27.3,20.4,48.1,20.4s18.1-1.4,25.6-4.3c7.5-2.9,15.9-7.9,25.1-15.1,3.1-2,5.7-3,7.8-3s3.7.9,5.1,2.7c1.4,1.8,2.2,4,2.2,6.7s-1.4,6.7-4.3,9.4c-7.9,7.2-17.2,12.7-27.9,16.6-10.7,3.9-22.1,5.8-34.1,5.8-18,0-33.5-3.9-46.6-11.7Z"/>
    </g>
  </g>
  <g id="virtual_ofice_x2B_">
    <g>
      <path class="st0" d="M470.3,252.3c1.3,0,2.5.5,3.6,1.4,1.1.9,1.6,2,1.6,3.3s-.2,1.1-.5,1.9l-28.3,62.1c-.5,1.1-1.2,1.9-2.2,2.5s-2.1.9-3.2.9-2.2-.3-3.3-.9c-1-.6-1.8-1.4-2.3-2.5l-28.2-62.1c-.3-.8-.5-1.4-.5-1.9,0-1.3.6-2.4,1.7-3.3,1.1-.9,2.3-1.3,3.7-1.3,2.1,0,3.5.9,4.4,2.8l24.6,55.1,24.6-55.1c.9-1.9,2.3-2.8,4.3-2.8Z"/>
      <path class="st0" d="M481,322.8c-.9-.9-1.4-2.2-1.4-3.8v-61.4c0-1.5.5-2.8,1.4-3.8.9-1,2.2-1.5,3.7-1.5s2.9.5,3.8,1.4c.9.9,1.4,2.2,1.4,3.8v61.4c0,1.6-.5,2.9-1.4,3.8-.9.9-2.2,1.4-3.9,1.4s-2.8-.5-3.7-1.4Z"/>
      <path class="st0" d="M557.5,320.1c0,1.2-.5,2.2-1.5,3.1-1,.8-2.1,1.3-3.4,1.3-1.9,0-3.4-.8-4.5-2.5l-13.5-20.9c-1.5-2.4-3.2-4.1-4.9-5.1-1.7-1-4-1.5-6.8-1.5h-11.4v24.5c0,1.6-.5,2.9-1.4,3.8-.9.9-2.2,1.4-3.8,1.4s-2.8-.5-3.7-1.4c-.9-.9-1.4-2.2-1.4-3.8v-61.1c0-1.5.5-2.8,1.4-3.7.9-.9,2.2-1.4,3.8-1.4h25c7.8,0,13.8,1.7,17.9,5.2,4.1,3.5,6.2,8.6,6.2,15.3s-1.6,10.1-4.7,13.5c-3.1,3.4-7.6,5.6-13.5,6.6,1.7.5,3.3,1.3,4.7,2.5,1.4,1.2,2.8,2.9,4.1,5l10.3,16.3c.6.9.9,1.8.9,2.8ZM530.3,286.2c5.2,0,9.1-1,11.6-3.1,2.5-2,3.8-5.2,3.8-9.5s-1.2-7.4-3.7-9.4c-2.5-2-6.4-3-11.7-3h-18.8v24.9h18.8Z"/>
      <path class="st0" d="M582,322.8c-1-1-1.5-2.2-1.5-3.8v-57.5h-20.1c-3.2,0-4.8-1.4-4.8-4.3s.4-2.5,1.3-3.2c.8-.7,2-1.1,3.6-1.1h50.6c1.5,0,2.7.4,3.6,1.1.8.7,1.3,1.8,1.3,3.2,0,2.9-1.6,4.3-4.8,4.3h-20.1v57.5c0,1.5-.5,2.8-1.4,3.8-.9,1-2.2,1.5-3.8,1.5s-2.8-.5-3.8-1.5Z"/>
      <path class="st0" d="M626.2,317.2c-4.9-4.9-7.3-12.1-7.3-21.6v-38c0-1.6.5-2.9,1.4-3.8s2.2-1.4,3.7-1.4,2.8.5,3.7,1.4c.9.9,1.4,2.2,1.4,3.8v38.7c0,6.5,1.6,11.4,4.7,14.8,3.1,3.3,7.7,5,13.9,5s10.7-1.7,13.9-5c3.1-3.3,4.7-8.3,4.7-14.8v-38.7c0-1.5.5-2.8,1.4-3.8.9-1,2.2-1.5,3.7-1.5s2.8.5,3.7,1.4c.9.9,1.4,2.2,1.4,3.8v38c0,9.4-2.5,16.6-7.4,21.5-4.9,4.9-12.1,7.4-21.4,7.4s-16.6-2.4-21.5-7.3Z"/>
      <path class="st0" d="M750,319.7c0,1.3-.5,2.3-1.6,3.2-1,.9-2.2,1.3-3.5,1.3s-1.7-.3-2.5-.8c-.8-.5-1.4-1.2-1.8-2.2l-6.6-15.1h-36.8l-6.6,15.1c-.4.9-1,1.7-1.8,2.2-.8.5-1.6.8-2.5.8-1.3,0-2.5-.4-3.6-1.3-1-.9-1.6-1.9-1.6-3.2s.2-1.2.5-2l28.3-62c.5-1.1,1.2-1.9,2.3-2.5,1-.6,2.1-.9,3.3-.9s2.2.3,3.3.9c1,.6,1.8,1.4,2.3,2.5l28.3,62c.3.8.5,1.5.5,2ZM701.1,298h29.4l-14.8-33.2-14.7,33.2Z"/>
      <path class="st0" d="M757.1,322.4c-.9-.9-1.4-2-1.4-3.5v-61.3c0-1.5.5-2.8,1.4-3.8.9-1,2.2-1.5,3.7-1.5s2.9.5,3.8,1.4c.9.9,1.4,2.2,1.4,3.8v57.5h30.5c1.5,0,2.7.4,3.6,1.1.8.7,1.3,1.8,1.3,3.2s-.4,2.5-1.3,3.2c-.8.7-2,1.1-3.6,1.1h-35.9c-1.5,0-2.8-.4-3.7-1.3Z"/>
      <path class="st0" d="M861.6,320.1c-4.9-2.9-8.7-7.1-11.4-12.6-2.7-5.4-4-11.8-4-19.2s1.3-13.9,4-19.3c2.6-5.5,6.4-9.6,11.4-12.6,5-2.9,10.8-4.4,17.5-4.4s12.6,1.5,17.6,4.4c5,2.9,8.8,7.1,11.4,12.6,2.6,5.5,4,11.9,4,19.2s-1.3,13.8-4,19.2c-2.6,5.5-6.4,9.7-11.4,12.6-5,2.9-10.8,4.4-17.6,4.4s-12.5-1.5-17.4-4.4ZM895.6,308.9c4-4.8,5.9-11.7,5.9-20.6s-2-15.8-5.9-20.5c-3.9-4.8-9.5-7.2-16.6-7.2s-12.5,2.4-16.4,7.2c-3.9,4.8-5.9,11.6-5.9,20.5s2,15.8,5.9,20.6c3.9,4.8,9.4,7.2,16.4,7.2s12.6-2.4,16.6-7.2Z"/>
      <path class="st0" d="M922.4,322.8c-.9-1-1.4-2.2-1.4-3.8v-61.1c0-1.5.5-2.8,1.4-3.7.9-.9,2.2-1.4,3.8-1.4h36c3.2,0,4.8,1.4,4.8,4.2s-1.6,4.2-4.8,4.2h-30.8v22.2h28.8c3.2,0,4.8,1.4,4.8,4.2s-1.6,4.2-4.8,4.2h-28.8v27c0,1.6-.5,2.9-1.4,3.8-.9.9-2.2,1.4-3.8,1.4s-2.8-.5-3.7-1.5Z"/>
      <path class="st0" d="M973.8,322.8c-.9-1-1.4-2.2-1.4-3.8v-61.1c0-1.5.5-2.8,1.4-3.7.9-.9,2.2-1.4,3.8-1.4h36c3.2,0,4.8,1.4,4.8,4.2s-1.6,4.2-4.8,4.2h-30.8v22.2h28.8c3.2,0,4.8,1.4,4.8,4.2s-1.6,4.2-4.8,4.2h-28.8v27c0,1.6-.5,2.9-1.4,3.8-.9.9-2.2,1.4-3.8,1.4s-2.8-.5-3.7-1.5Z"/>
      <path class="st0" d="M1025.1,322.8c-.9-.9-1.4-2.2-1.4-3.8v-61.4c0-1.5.5-2.8,1.4-3.8.9-1,2.2-1.5,3.7-1.5s2.9.5,3.8,1.4c.9.9,1.4,2.2,1.4,3.8v61.4c0,1.6-.5,2.9-1.4,3.8-.9.9-2.2,1.4-3.9,1.4s-2.8-.5-3.7-1.4Z"/>
      <path class="st0" d="M1058.6,320.2c-5-2.9-8.9-7.1-11.6-12.6-2.7-5.5-4-11.9-4-19.3s1.3-13.8,4-19.2c2.7-5.5,6.5-9.6,11.6-12.6,5-2.9,10.9-4.4,17.7-4.4s8.6.7,12.6,2.1c4,1.4,7.4,3.4,10.3,6,1.3,1,1.9,2.3,1.9,4s-.3,2.2-1,3.1c-.7.8-1.5,1.3-2.4,1.3s-2.2-.4-3.3-1.3c-3.2-2.4-6.1-4.1-8.8-5.1-2.6-1-5.6-1.5-9-1.5-7.4,0-13,2.4-17,7.1-4,4.8-5.9,11.6-5.9,20.5s2,15.8,5.9,20.6c4,4.8,9.6,7.1,17,7.1s6.1-.5,8.8-1.5c2.6-1,5.6-2.7,9-5,1.3-.9,2.4-1.3,3.3-1.3s1.7.4,2.4,1.3c.7.8,1,1.9,1,3.1s-.6,3-1.9,4c-2.9,2.6-6.4,4.6-10.3,6-4,1.4-8.1,2.1-12.6,2.1-6.8,0-12.7-1.5-17.7-4.4Z"/>
      <path class="st0" d="M1109.8,322.4c-.9-.9-1.4-2.1-1.4-3.7v-60.8c0-1.5.5-2.8,1.4-3.7.9-.9,2.2-1.4,3.8-1.4h37c1.5,0,2.7.4,3.6,1.1.8.7,1.3,1.8,1.3,3.1s-.4,2.4-1.3,3.1c-.8.7-2,1.1-3.6,1.1h-31.9v22.3h29.9c1.5,0,2.7.4,3.6,1.1.8.7,1.3,1.8,1.3,3.1s-.4,2.4-1.3,3.1c-.8.7-2,1.1-3.6,1.1h-29.9v23.4h31.9c3.2,0,4.8,1.4,4.8,4.1s-.4,2.4-1.3,3.1c-.8.7-2,1.1-3.6,1.1h-37c-1.6,0-2.9-.5-3.8-1.4Z"/>
      <path class="st0" d="M1170.1,322.4c-4.6-1.4-8.3-3.3-11-5.8-1.3-1.1-1.9-2.4-1.9-4.1s.3-2.2,1-3.1c.7-.8,1.5-1.3,2.4-1.3s2.1.4,3.4,1.3c6,4.4,12.8,6.6,20.4,6.6s9.5-1,12.4-3c2.9-2,4.3-4.9,4.3-8.6s-1.3-5.2-4-6.6c-2.7-1.5-7-2.9-12.9-4.2-5.6-1.2-10.2-2.6-13.9-4.1-3.6-1.5-6.4-3.6-8.5-6.3-2-2.6-3.1-6-3.1-10.1s1.1-7.7,3.4-10.9c2.2-3.2,5.4-5.7,9.4-7.4,4-1.8,8.6-2.7,13.8-2.7s9.1.7,13.2,2c4,1.3,7.4,3.3,10.2,5.9,1.3,1.1,2,2.5,2,4.1s-.4,2.1-1.1,3c-.7.9-1.5,1.3-2.5,1.3s-2-.4-3.3-1.3c-3.1-2.3-6-4-8.7-5.1-2.7-1-6-1.6-9.8-1.6s-9.2,1.1-12.1,3.2c-2.9,2.1-4.3,5-4.3,8.8s1.3,5.6,3.8,7.3c2.5,1.6,6.6,3.1,12.3,4.5,5.9,1.3,10.7,2.7,14.3,4.2,3.6,1.4,6.6,3.4,8.7,5.9,2.2,2.5,3.3,5.7,3.3,9.7s-1.1,7.6-3.4,10.7c-2.2,3.1-5.4,5.5-9.4,7.2-4.1,1.7-8.7,2.6-14,2.6s-9.9-.7-14.5-2.1Z"/>
    </g>
  </g>
  <g id="punto_del_medio">
    <circle class="st0" cx="163.4" cy="161.4" r="34.1"/>
  </g>
  <g id="c_arriba">
    <path class="st0" d="M164,94c-41.2.3-76.4-26.2-89.1-63.1-5-14.6,5.6-29.9,21.1-30h0c9.7,0,18.6,5.9,21.7,15.1,6.5,19.1,24.7,32.8,46,32.7,21.3-.1,39.3-14.1,45.6-33.3C212.2,6.2,221,0,230.7,0h0c15.4-.1,26.3,15,21.5,29.7-12.2,37.1-47.1,64.1-88.2,64.3Z"/>
  </g>
  <g id="c_derecha">
    <path class="st0" d="M231,161.9c.3,41.2,27.3,76,64.3,88.2,14.7,4.8,29.8-6.1,29.7-21.5h0c0-9.7-6.2-18.5-15.4-21.5-19.2-6.3-33.2-24.3-33.3-45.6-.1-21.3,13.6-39.5,32.7-46,9.2-3.1,15.2-12,15.1-21.7h0c-.1-15.4-15.4-26.1-30-21.1-36.9,12.7-63.4,48-63.1,89.1Z"/>
  </g>
  <g id="c_izquiera">
    <path class="st0" d="M96,160.8c-.3-41.2-27.4-76-64.5-88.1-14.7-4.8-29.8,6.1-29.6,21.5h0c0,9.7,6.2,18.5,15.4,21.5,19.2,6.2,33.2,24.2,33.4,45.5.2,21.3-13.5,39.5-32.6,46.1-9.2,3.1-15.1,12-15.1,21.7h0c.1,15.4,15.4,26.1,30,21,36.9-12.8,63.3-48,63-89.2Z"/>
  </g>
  <g id="c_abajo">
    <path class="st0" d="M162.9,228.6c41.2-.3,76.4,26.1,89.2,63,5.1,14.6-5.6,29.9-21,30h0c-9.7,0-18.6-5.9-21.7-15.1-6.6-19.1-24.8-32.8-46.1-32.6-21.3.2-39.3,14.2-45.5,33.4-3,9.2-11.8,15.3-21.5,15.4h0c-15.4.1-26.4-15-21.5-29.6,12.2-37.1,47-64.1,88.1-64.5Z"/>
  </g>
</svg>