<?xml version="1.0" encoding="UTF-8"?>
<svg id="Capa_1" xmlns="http://www.w3.org/2000/svg" version="1.1" viewBox="0 0 173 48">
  <!-- Generator: Adobe Illustrator 29.0.1, SVG Export Plug-In . SVG Version: 2.1.0 Build 192)  -->
  <defs>
    <style>
      .st0 {
        fill: #373737;
      }

      .st1 {
        fill: #07b9fd;
      }
    </style>
  </defs>
  <g>
    <path class="st0" d="M58.4,27.6c-.3-.3-.4-.7-.4-1.2V2.1c0-.5.1-.9.4-1.2.3-.3.7-.4,1.2-.4s.9.1,1.2.4c.3.3.4.7.4,1.2v24.3c0,.5-.1.9-.4,1.2-.3.3-.7.4-1.2.4s-.9-.1-1.2-.4Z"/>
    <path class="st0" d="M70.8,26.5c-1.9-1.1-3.3-2.7-4.3-4.8-1-2.1-1.5-4.6-1.5-7.4s.5-5.3,1.5-7.4c1-2.1,2.5-3.7,4.3-4.8,1.9-1.1,4.1-1.7,6.7-1.7s3.3.3,4.9.8c1.5.6,2.9,1.3,4,2.4.4.4.6.8.6,1.3s-.1.7-.3.9-.4.4-.7.4-.7-.1-1.1-.4c-1.3-1-2.5-1.7-3.6-2.2-1.1-.4-2.3-.6-3.7-.6-3,0-5.3,1-6.9,2.9-1.6,1.9-2.4,4.7-2.4,8.3s.8,6.4,2.4,8.3c1.6,1.9,3.9,2.9,6.9,2.9s2.6-.2,3.7-.6c1.1-.4,2.3-1.1,3.6-2.2.4-.3.8-.4,1.1-.4s.5.1.7.4c.2.3.3.6.3,1s-.2,1-.6,1.3c-1.1,1-2.5,1.8-4,2.4-1.5.6-3.2.8-4.9.8-2.6,0-4.8-.6-6.7-1.7Z"/>
    <path class="st0" d="M94.5,26.5c-1.9-1.1-3.3-2.7-4.3-4.8-1-2.1-1.5-4.5-1.5-7.4s.5-5.3,1.5-7.4c1-2.1,2.4-3.7,4.3-4.8,1.9-1.1,4.1-1.7,6.6-1.7s4.7.6,6.6,1.7c1.9,1.1,3.3,2.7,4.3,4.8,1,2.1,1.5,4.6,1.5,7.4s-.5,5.3-1.5,7.4c-1,2.1-2.4,3.7-4.3,4.8-1.9,1.1-4.1,1.7-6.6,1.7s-4.7-.6-6.6-1.7ZM107.8,22.6c1.6-1.9,2.4-4.7,2.4-8.3s-.8-6.4-2.4-8.3c-1.6-1.9-3.8-2.9-6.7-2.9s-5.1,1-6.7,2.9c-1.6,1.9-2.4,4.7-2.4,8.3s.8,6.3,2.4,8.3c1.6,2,3.8,2.9,6.7,2.9s5.1-1,6.7-2.9Z"/>
    <path class="st0" d="M138.6,1c.3.3.4.7.4,1.2v24.3c0,.5-.1.9-.4,1.2s-.6.4-1.1.4-.9-.2-1.3-.7l-16-21.4v20.4c0,.5-.1.9-.4,1.2s-.6.4-1.1.4-.8-.1-1.1-.4c-.3-.3-.4-.7-.4-1.2V2.1c0-.5.1-.9.4-1.2.3-.3.6-.4,1.1-.4s1,.2,1.3.7l16,21.4V2.1c0-.5.1-.9.4-1.2.3-.3.6-.4,1.1-.4s.8.1,1.1.4Z"/>
    <path class="st0" d="M144.2,27.6c-.3-.3-.4-.7-.4-1.2V2.1c0-.5.1-.9.4-1.2.3-.3.7-.4,1.2-.4s.9.1,1.2.4c.3.3.4.7.4,1.2v24.3c0,.5-.1.9-.4,1.2-.3.3-.7.4-1.2.4s-.9-.1-1.2-.4Z"/>
    <path class="st0" d="M156.6,26.5c-1.9-1.1-3.3-2.7-4.3-4.8-1-2.1-1.5-4.6-1.5-7.4s.5-5.3,1.5-7.4c1-2.1,2.5-3.7,4.3-4.8,1.9-1.1,4.1-1.7,6.7-1.7s3.3.3,4.9.8c1.5.6,2.9,1.3,4,2.4.4.4.6.8.6,1.3s-.1.7-.3.9c-.2.3-.4.4-.7.4s-.7-.1-1.1-.4c-1.3-1-2.5-1.7-3.6-2.2-1.1-.4-2.3-.6-3.7-.6-3,0-5.3,1-6.9,2.9-1.6,1.9-2.4,4.7-2.4,8.3s.8,6.4,2.4,8.3c1.6,1.9,3.9,2.9,6.9,2.9s2.6-.2,3.7-.6c1.1-.4,2.3-1.1,3.6-2.2.4-.3.8-.4,1.1-.4s.5.1.7.4c.2.3.3.6.3,1s-.2,1-.6,1.3c-1.1,1-2.5,1.8-4,2.4-1.5.6-3.2.8-4.9.8-2.6,0-4.8-.6-6.7-1.7Z"/>
  </g>
  <g>
    <path class="st1" d="M67,36.5c.2,0,.4,0,.5.2.2.1.2.3.2.5s0,.2,0,.3l-4.1,8.9c0,.2-.2.3-.3.4-.1,0-.3.1-.5.1s-.3,0-.5-.1c-.1,0-.3-.2-.3-.4l-4-8.9c0-.1,0-.2,0-.3,0-.2,0-.3.2-.5.2-.1.3-.2.5-.2.3,0,.5.1.6.4l3.5,7.9,3.5-7.9c.1-.3.3-.4.6-.4Z"/>
    <path class="st1" d="M68.5,46.6c-.1-.1-.2-.3-.2-.5v-8.8c0-.2,0-.4.2-.5s.3-.2.5-.2.4,0,.5.2c.1.1.2.3.2.5v8.8c0,.2,0,.4-.2.5s-.3.2-.6.2-.4,0-.5-.2Z"/>
    <path class="st1" d="M79.5,46.2c0,.2,0,.3-.2.4s-.3.2-.5.2c-.3,0-.5-.1-.6-.4l-1.9-3c-.2-.3-.5-.6-.7-.7-.2-.1-.6-.2-1-.2h-1.6v3.5c0,.2,0,.4-.2.5-.1.1-.3.2-.5.2s-.4,0-.5-.2-.2-.3-.2-.5v-8.7c0-.2,0-.4.2-.5.1-.1.3-.2.5-.2h3.6c1.1,0,2,.2,2.6.7.6.5.9,1.2.9,2.2s-.2,1.4-.7,1.9c-.4.5-1.1.8-1.9.9.2,0,.5.2.7.4.2.2.4.4.6.7l1.5,2.3c0,.1.1.3.1.4ZM75.6,41.3c.7,0,1.3-.1,1.7-.4.4-.3.5-.7.5-1.4s-.2-1.1-.5-1.3-.9-.4-1.7-.4h-2.7v3.6h2.7Z"/>
    <path class="st1" d="M83,46.6c-.1-.1-.2-.3-.2-.5v-8.2h-2.9c-.5,0-.7-.2-.7-.6s0-.4.2-.5.3-.2.5-.2h7.2c.2,0,.4,0,.5.2.1.1.2.3.2.5,0,.4-.2.6-.7.6h-2.9v8.2c0,.2,0,.4-.2.5-.1.1-.3.2-.5.2s-.4,0-.5-.2Z"/>
    <path class="st1" d="M89.3,45.8c-.7-.7-1-1.7-1-3.1v-5.4c0-.2,0-.4.2-.5.1-.1.3-.2.5-.2s.4,0,.5.2c.1.1.2.3.2.5v5.5c0,.9.2,1.6.7,2.1s1.1.7,2,.7,1.5-.2,2-.7c.4-.5.7-1.2.7-2.1v-5.5c0-.2,0-.4.2-.5s.3-.2.5-.2.4,0,.5.2c.1.1.2.3.2.5v5.4c0,1.4-.4,2.4-1.1,3.1-.7.7-1.7,1.1-3.1,1.1s-2.4-.3-3.1-1Z"/>
    <path class="st1" d="M107,46.1c0,.2,0,.3-.2.5-.1.1-.3.2-.5.2s-.2,0-.4-.1c-.1,0-.2-.2-.3-.3l-.9-2.2h-5.3l-.9,2.2c0,.1-.1.2-.3.3-.1,0-.2.1-.4.1-.2,0-.4,0-.5-.2s-.2-.3-.2-.5,0-.2,0-.3l4.1-8.9c0-.2.2-.3.3-.4.1,0,.3-.1.5-.1s.3,0,.5.1c.1,0,.3.2.3.4l4.1,8.9c0,.1,0,.2,0,.3ZM100,43h4.2l-2.1-4.8-2.1,4.8Z"/>
    <path class="st1" d="M108,46.5c-.1-.1-.2-.3-.2-.5v-8.8c0-.2,0-.4.2-.5s.3-.2.5-.2.4,0,.5.2c.1.1.2.3.2.5v8.2h4.4c.2,0,.4,0,.5.2s.2.3.2.5,0,.4-.2.5c-.1.1-.3.2-.5.2h-5.1c-.2,0-.4,0-.5-.2Z"/>
    <path class="st1" d="M123,46.2c-.7-.4-1.2-1-1.6-1.8-.4-.8-.6-1.7-.6-2.7s.2-2,.6-2.8.9-1.4,1.6-1.8c.7-.4,1.5-.6,2.5-.6s1.8.2,2.5.6c.7.4,1.3,1,1.6,1.8s.6,1.7.6,2.8-.2,2-.6,2.8-.9,1.4-1.6,1.8c-.7.4-1.5.6-2.5.6s-1.8-.2-2.5-.6ZM127.8,44.6c.6-.7.8-1.7.8-2.9s-.3-2.3-.8-2.9-1.4-1-2.4-1-1.8.3-2.3,1-.8,1.7-.8,2.9.3,2.3.8,2.9c.6.7,1.3,1,2.3,1s1.8-.3,2.4-1Z"/>
    <path class="st1" d="M131.7,46.6c-.1-.1-.2-.3-.2-.5v-8.7c0-.2,0-.4.2-.5.1-.1.3-.2.5-.2h5.1c.5,0,.7.2.7.6s-.2.6-.7.6h-4.4v3.2h4.1c.5,0,.7.2.7.6s-.2.6-.7.6h-4.1v3.9c0,.2,0,.4-.2.5-.1.1-.3.2-.5.2s-.4,0-.5-.2Z"/>
    <path class="st1" d="M139,46.6c-.1-.1-.2-.3-.2-.5v-8.7c0-.2,0-.4.2-.5.1-.1.3-.2.5-.2h5.1c.5,0,.7.2.7.6s-.2.6-.7.6h-4.4v3.2h4.1c.5,0,.7.2.7.6s-.2.6-.7.6h-4.1v3.9c0,.2,0,.4-.2.5-.1.1-.3.2-.5.2s-.4,0-.5-.2Z"/>
    <path class="st1" d="M146.3,46.6c-.1-.1-.2-.3-.2-.5v-8.8c0-.2,0-.4.2-.5s.3-.2.5-.2.4,0,.5.2c.1.1.2.3.2.5v8.8c0,.2,0,.4-.2.5s-.3.2-.6.2-.4,0-.5-.2Z"/>
    <path class="st1" d="M151.1,46.2c-.7-.4-1.3-1-1.7-1.8-.4-.8-.6-1.7-.6-2.8s.2-2,.6-2.8.9-1.4,1.7-1.8c.7-.4,1.6-.6,2.5-.6s1.2,0,1.8.3c.6.2,1.1.5,1.5.9.2.1.3.3.3.6s0,.3-.1.4c0,.1-.2.2-.3.2s-.3,0-.5-.2c-.5-.3-.9-.6-1.3-.7-.4-.1-.8-.2-1.3-.2-1.1,0-1.9.3-2.4,1-.6.7-.8,1.7-.8,2.9s.3,2.3.8,2.9c.6.7,1.4,1,2.4,1s.9,0,1.3-.2c.4-.1.8-.4,1.3-.7.2-.1.3-.2.5-.2s.2,0,.3.2c0,.1.1.3.1.4s0,.4-.3.6c-.4.4-.9.7-1.5.9-.6.2-1.2.3-1.8.3-1,0-1.8-.2-2.5-.6Z"/>
    <path class="st1" d="M158.5,46.5c-.1-.1-.2-.3-.2-.5v-8.7c0-.2,0-.4.2-.5.1-.1.3-.2.5-.2h5.3c.2,0,.4,0,.5.2s.2.3.2.4,0,.3-.2.4c-.1.1-.3.2-.5.2h-4.6v3.2h4.3c.2,0,.4,0,.5.2.1.1.2.3.2.4s0,.3-.2.4c-.1.1-.3.2-.5.2h-4.3v3.3h4.6c.5,0,.7.2.7.6s0,.3-.2.4c-.1.1-.3.2-.5.2h-5.3c-.2,0-.4,0-.5-.2Z"/>
    <path class="st1" d="M167.1,46.5c-.7-.2-1.2-.5-1.6-.8-.2-.2-.3-.3-.3-.6s0-.3.1-.4c0-.1.2-.2.3-.2s.3,0,.5.2c.9.6,1.8.9,2.9.9s1.4-.1,1.8-.4c.4-.3.6-.7.6-1.2s-.2-.7-.6-.9c-.4-.2-1-.4-1.8-.6-.8-.2-1.5-.4-2-.6-.5-.2-.9-.5-1.2-.9-.3-.4-.4-.9-.4-1.4s.2-1.1.5-1.6.8-.8,1.3-1.1c.6-.3,1.2-.4,2-.4s1.3,0,1.9.3,1.1.5,1.5.8c.2.2.3.4.3.6s0,.3-.2.4c-.1.1-.2.2-.4.2s-.3,0-.5-.2c-.4-.3-.9-.6-1.2-.7s-.9-.2-1.4-.2-1.3.2-1.7.5c-.4.3-.6.7-.6,1.3s.2.8.5,1c.4.2.9.4,1.8.6.8.2,1.5.4,2,.6.5.2.9.5,1.2.8.3.4.5.8.5,1.4s-.2,1.1-.5,1.5c-.3.4-.8.8-1.4,1s-1.2.4-2,.4-1.4-.1-2.1-.3Z"/>
  </g>
  <g>
    <path class="st1" d="M23.2,14.4c-5.9,0-10.9-3.7-12.7-9s.8-4.3,3-4.3h0c1.4,0,2.7.8,3.1,2.2.9,2.7,3.5,4.7,6.6,4.7,3,0,5.6-2,6.5-4.8.4-1.3,1.7-2.2,3.1-2.2h0c2.2,0,3.8,2.1,3.1,4.2-1.7,5.3-6.7,9.2-12.6,9.2Z"/>
    <path class="st1" d="M32.8,24.1c0,5.9,3.9,10.9,9.2,12.6,2.1.7,4.3-.9,4.2-3.1h0c0-1.4-.9-2.6-2.2-3.1-2.7-.9-4.7-3.5-4.8-6.5,0-3,1.9-5.6,4.7-6.6s2.2-1.7,2.2-3.1h0c0-2.2-2.2-3.7-4.3-3-5.3,1.8-9.1,6.9-9,12.7Z"/>
    <path class="st1" d="M23,33.6c5.9,0,10.9,3.7,12.8,9,.7,2.1-.8,4.3-3,4.3h0c-1.4,0-2.7-.8-3.1-2.2-.9-2.7-3.5-4.7-6.6-4.7-3,0-5.6,2-6.5,4.8s-1.7,2.2-3.1,2.2h0c-2.2,0-3.8-2.1-3.1-4.2,1.7-5.3,6.7-9.2,12.6-9.2Z"/>
    <path class="st1" d="M13.5,23.9c0-5.9-3.9-10.9-9.2-12.6C2.1,10.6,0,12.2,0,14.4h0c0,1.4.9,2.6,2.2,3.1,2.7.9,4.8,3.5,4.8,6.5s-1.9,5.7-4.7,6.6-2.2,1.7-2.2,3.1h0c0,2.2,2.2,3.7,4.3,3,5.3-1.8,9.1-6.9,9-12.8Z"/>
    <circle class="st1" cx="23.1" cy="24" r="4.9"/>
  </g>
</svg>