<svg width="24" height="25" viewBox="0 0 24 25" fill="none" xmlns="http://www.w3.org/2000/svg">
<path d="M12 7.74854C11.11 7.74854 10.24 8.01246 9.49993 8.50692C8.75991 9.00139 8.18314 9.70419 7.84254 10.5265C7.50195 11.3487 7.41283 12.2535 7.58647 13.1264C7.7601 13.9994 8.18868 14.8012 8.81802 15.4305C9.44736 16.0599 10.2492 16.4884 11.1221 16.6621C11.995 16.8357 12.8998 16.7466 13.7221 16.406C14.5443 16.0654 15.2471 15.4886 15.7416 14.7486C16.2361 14.0086 16.5 13.1386 16.5 12.2485C16.4988 11.0554 16.0243 9.91157 15.1806 9.06793C14.337 8.22428 13.1931 7.74978 12 7.74854ZM12 14.4985C11.555 14.4985 11.12 14.3666 10.75 14.1193C10.38 13.8721 10.0916 13.5207 9.92127 13.1096C9.75097 12.6984 9.70642 12.246 9.79323 11.8096C9.88005 11.3731 10.0943 10.9722 10.409 10.6575C10.7237 10.3429 11.1246 10.1286 11.561 10.0418C11.9975 9.95495 12.4499 9.99951 12.861 10.1698C13.2722 10.3401 13.6236 10.6285 13.8708 10.9985C14.118 11.3685 14.25 11.8035 14.25 12.2485C14.25 12.8453 14.0129 13.4176 13.591 13.8395C13.169 14.2615 12.5967 14.4985 12 14.4985ZM16.5 2.12354H7.5C6.00869 2.12527 4.57896 2.71846 3.52444 3.77298C2.46993 4.82749 1.87674 6.25723 1.875 7.74854V16.7485C1.87674 18.2398 2.46993 19.6696 3.52444 20.7241C4.57896 21.7786 6.00869 22.3718 7.5 22.3735H16.5C17.9913 22.3718 19.421 21.7786 20.4756 20.7241C21.5301 19.6696 22.1233 18.2398 22.125 16.7485V7.74854C22.1233 6.25723 21.5301 4.82749 20.4756 3.77298C19.421 2.71846 17.9913 2.12527 16.5 2.12354ZM19.875 16.7485C19.875 17.6436 19.5194 18.5021 18.8865 19.135C18.2535 19.768 17.3951 20.1235 16.5 20.1235H7.5C6.60489 20.1235 5.74645 19.768 5.11351 19.135C4.48058 18.5021 4.125 17.6436 4.125 16.7485V7.74854C4.125 6.85343 4.48058 5.99498 5.11351 5.36205C5.74645 4.72911 6.60489 4.37354 7.5 4.37354H16.5C17.3951 4.37354 18.2535 4.72911 18.8865 5.36205C19.5194 5.99498 19.875 6.85343 19.875 7.74854V16.7485ZM18.375 7.37354C18.375 7.67021 18.287 7.96022 18.1222 8.20689C17.9574 8.45356 17.7231 8.64582 17.449 8.75935C17.1749 8.87289 16.8733 8.90259 16.5824 8.84471C16.2914 8.78684 16.0241 8.64397 15.8143 8.4342C15.6046 8.22442 15.4617 7.95714 15.4038 7.66617C15.3459 7.3752 15.3756 7.0736 15.4892 6.79951C15.6027 6.52542 15.795 6.29115 16.0416 6.12633C16.2883 5.96151 16.5783 5.87354 16.875 5.87354C17.2728 5.87354 17.6544 6.03157 17.9357 6.31288C18.217 6.59418 18.375 6.97571 18.375 7.37354Z" fill="#FAFBFF"/>
</svg>
