<svg width="24" height="25" viewBox="0 0 24 25" fill="none" xmlns="http://www.w3.org/2000/svg">
<path d="M12 7.88867C11.11 7.88867 10.24 8.15259 9.49993 8.64706C8.75991 9.14153 8.18314 9.84433 7.84254 10.6666C7.50195 11.4889 7.41283 12.3937 7.58647 13.2666C7.7601 14.1395 8.18868 14.9413 8.81802 15.5707C9.44736 16.2 10.2492 16.6286 11.1221 16.8022C11.995 16.9758 12.8998 16.8867 13.7221 16.5461C14.5443 16.2055 15.2471 15.6288 15.7416 14.8887C16.2361 14.1487 16.5 13.2787 16.5 12.3887C16.4988 11.1956 16.0243 10.0517 15.1806 9.20806C14.337 8.36442 13.1931 7.88991 12 7.88867ZM12 14.6387C11.555 14.6387 11.12 14.5067 10.75 14.2595C10.38 14.0122 10.0916 13.6608 9.92127 13.2497C9.75097 12.8386 9.70642 12.3862 9.79323 11.9497C9.88005 11.5133 10.0943 11.1123 10.409 10.7977C10.7237 10.483 11.1246 10.2687 11.561 10.1819C11.9975 10.0951 12.4499 10.1396 12.861 10.3099C13.2722 10.4802 13.6236 10.7686 13.8708 11.1386C14.118 11.5086 14.25 11.9437 14.25 12.3887C14.25 12.9854 14.0129 13.5577 13.591 13.9797C13.169 14.4016 12.5967 14.6387 12 14.6387ZM16.5 2.26367H7.5C6.00869 2.26541 4.57896 2.8586 3.52444 3.91311C2.46993 4.96763 1.87674 6.39736 1.875 7.88867V16.8887C1.87674 18.38 2.46993 19.8097 3.52444 20.8642C4.57896 21.9187 6.00869 22.5119 7.5 22.5137H16.5C17.9913 22.5119 19.421 21.9187 20.4756 20.8642C21.5301 19.8097 22.1233 18.38 22.125 16.8887V7.88867C22.1233 6.39736 21.5301 4.96763 20.4756 3.91311C19.421 2.8586 17.9913 2.26541 16.5 2.26367ZM19.875 16.8887C19.875 17.7838 19.5194 18.6422 18.8865 19.2752C18.2535 19.9081 17.3951 20.2637 16.5 20.2637H7.5C6.60489 20.2637 5.74645 19.9081 5.11351 19.2752C4.48058 18.6422 4.125 17.7838 4.125 16.8887V7.88867C4.125 6.99357 4.48058 6.13512 5.11351 5.50219C5.74645 4.86925 6.60489 4.51367 7.5 4.51367H16.5C17.3951 4.51367 18.2535 4.86925 18.8865 5.50219C19.5194 6.13512 19.875 6.99357 19.875 7.88867V16.8887ZM18.375 7.51367C18.375 7.81034 18.287 8.10035 18.1222 8.34703C17.9574 8.5937 17.7231 8.78596 17.449 8.89949C17.1749 9.01302 16.8733 9.04273 16.5824 8.98485C16.2914 8.92697 16.0241 8.78411 15.8143 8.57433C15.6046 8.36455 15.4617 8.09728 15.4038 7.80631C15.3459 7.51534 15.3756 7.21374 15.4892 6.93965C15.6027 6.66556 15.795 6.43129 16.0416 6.26647C16.2883 6.10165 16.5783 6.01367 16.875 6.01367C17.2728 6.01367 17.6544 6.17171 17.9357 6.45301C18.217 6.73432 18.375 7.11585 18.375 7.51367Z" fill="#FAFBFF"/>
</svg>
