<svg width="24" height="25" viewBox="0 0 24 25" fill="none" xmlns="http://www.w3.org/2000/svg">
<path fill-rule="evenodd" clip-rule="evenodd" d="M8.5688 18.2485V10.2282H5.99536V18.2485H8.5688ZM7.37817 9.01416C8.23599 9.01416 8.77036 8.4001 8.77036 7.63135C8.7563 6.84854 8.23599 6.24854 7.39224 6.24854C6.54849 6.24854 6.00005 6.84854 6.00005 7.63135C6.00005 8.4001 6.53442 9.01416 7.35942 9.01416H7.37817Z" fill="#FAFBFF"/>
<path fill-rule="evenodd" clip-rule="evenodd" d="M15.0281 10.0454C13.6641 10.0454 13.0781 10.8142 12.7031 11.3485V10.2329H10.125V18.2485H12.7031V13.6829C12.7031 13.4485 12.7219 13.2142 12.7922 13.0501C12.9797 12.5813 13.4016 12.0985 14.1141 12.0985C15.0469 12.0985 15.4219 12.8157 15.4219 13.8657V18.2485H18V13.5657C18 11.161 16.725 10.0454 15.0281 10.0454Z" fill="#FAFBFF"/>
<path d="M19.5563 3.24854H4.5375C3.71719 3.24854 3 3.83916 3 4.6501V19.7017C3 20.5173 3.71719 21.2438 4.5375 21.2438H19.5516C20.3766 21.2438 20.9953 20.5126 20.9953 19.7017V4.6501C21 3.83916 20.3766 3.24854 19.5563 3.24854ZM19.4062 19.7485H4.64531C4.56094 19.7485 4.5 19.6829 4.5 19.6032V4.84229C4.5 4.79072 4.54688 4.74854 4.59375 4.74854H19.4062C19.4531 4.74854 19.5 4.79541 19.5 4.84229V19.6548C19.5 19.697 19.4578 19.7485 19.4062 19.7485Z" fill="#FAFBFF"/>
</svg>
