<svg width="24" height="25" viewBox="0 0 24 25" fill="none" xmlns="http://www.w3.org/2000/svg">
<path fill-rule="evenodd" clip-rule="evenodd" d="M8.56874 18.3887V10.3684H5.9953V18.3887H8.56874ZM7.37811 9.1543C8.23592 9.1543 8.7703 8.54023 8.7703 7.77148C8.75624 6.98867 8.23593 6.38867 7.39218 6.38867C6.54843 6.38867 5.99999 6.98867 5.99999 7.77148C5.99999 8.54023 6.53436 9.1543 7.35936 9.1543H7.37811Z" fill="#FAFBFF"/>
<path fill-rule="evenodd" clip-rule="evenodd" d="M15.0281 10.1855C13.6641 10.1855 13.0781 10.9543 12.7031 11.4887V10.373H10.125V18.3887H12.7031V13.823C12.7031 13.5887 12.7219 13.3543 12.7922 13.1902C12.9797 12.7215 13.4016 12.2387 14.1141 12.2387C15.0469 12.2387 15.4219 12.9559 15.4219 14.0059V18.3887H18V13.7059C18 11.3012 16.725 10.1855 15.0281 10.1855Z" fill="#FAFBFF"/>
<path d="M19.5563 3.38867H4.5375C3.71719 3.38867 3 3.9793 3 4.79023V19.8418C3 20.6574 3.71719 21.384 4.5375 21.384H19.5516C20.3766 21.384 20.9953 20.6527 20.9953 19.8418V4.79023C21 3.9793 20.3766 3.38867 19.5563 3.38867ZM19.4062 19.8887H4.64531C4.56094 19.8887 4.5 19.823 4.5 19.7434V4.98242C4.5 4.93086 4.54688 4.88867 4.59375 4.88867H19.4062C19.4531 4.88867 19.5 4.93555 19.5 4.98242V19.7949C19.5 19.8371 19.4578 19.8887 19.4062 19.8887Z" fill="#FAFBFF"/>
</svg>
