<svg width="24" height="25" viewBox="0 0 24 25" fill="none" xmlns="http://www.w3.org/2000/svg">
<path fill-rule="evenodd" clip-rule="evenodd" d="M19.753 4.90754C19.8395 4.80865 19.9056 4.6937 19.9477 4.56925C19.9897 4.4448 20.0069 4.31328 19.9981 4.18221C19.9893 4.05114 19.9548 3.92309 19.8965 3.80535C19.8383 3.68762 19.7574 3.58251 19.6585 3.49604C19.5596 3.40956 19.4447 3.34341 19.3202 3.30136C19.1958 3.25931 19.0642 3.24218 18.9332 3.25095C18.8021 3.25973 18.6741 3.29423 18.5563 3.3525C18.4386 3.41077 18.3335 3.49165 18.247 3.59054L13.137 9.43054L8.8 3.64854C8.70685 3.52434 8.58607 3.42354 8.44721 3.35411C8.30836 3.28468 8.15525 3.24854 8 3.24854H4C3.81429 3.24854 3.63225 3.30025 3.47427 3.39788C3.31629 3.49552 3.18863 3.63522 3.10557 3.80132C3.02252 3.96743 2.98736 4.15338 3.00404 4.33834C3.02072 4.5233 3.08857 4.69997 3.2 4.84854L9.637 13.4305L4.247 19.5905C4.16053 19.6894 4.09437 19.8044 4.05232 19.9288C4.01027 20.0533 3.99314 20.1848 4.00192 20.3159C4.01069 20.4469 4.0452 20.575 4.10347 20.6927C4.16173 20.8105 4.24261 20.9156 4.3415 21.002C4.44039 21.0885 4.55534 21.1547 4.67979 21.1967C4.80424 21.2388 4.93575 21.2559 5.06682 21.2471C5.19789 21.2383 5.32595 21.2038 5.44368 21.1456C5.56142 21.0873 5.66652 21.0064 5.753 20.9075L10.863 15.0665L15.2 20.8485C15.2931 20.9727 15.4139 21.0735 15.5528 21.143C15.6916 21.2124 15.8448 21.2485 16 21.2485H20C20.1857 21.2485 20.3678 21.1968 20.5257 21.0992C20.6837 21.0016 20.8114 20.8619 20.8944 20.6957C20.9775 20.5296 21.0126 20.3437 20.996 20.1587C20.9793 19.9738 20.9114 19.7971 20.8 19.6485L14.363 11.0665L19.753 4.90754ZM16.5 19.2485L6 5.24854H7.5L18 19.2485H16.5Z" fill="#F7F7F7"/>
</svg>
